<svg width="146" height="180" viewBox="0 0 146 180" fill="none" xmlns="http://www.w3.org/2000/svg">
<g clip-path="url(#clip0)">
<path d="M72.9199 40.162C78.0789 40.162 83.2379 42.4836 86.5913 45.579C95.6196 54.0913 101.552 75.2433 101.552 90.7203C101.552 105.166 95.8775 127.349 86.5913 135.346C83.2379 138.441 78.0789 140.763 72.9199 140.763C67.7609 140.763 62.6019 138.441 59.2485 135.346C49.1885 126.575 44.2874 104.392 44.2874 90.4624C44.2874 74.4694 49.9623 53.5754 59.2485 45.579C62.6019 42.4836 67.7609 40.162 72.9199 40.162ZM145.92 90.2044C145.92 59.5083 135.86 35.261 120.383 19.7839C106.969 6.62845 89.6867 0.179688 72.9199 0.179688C56.1531 0.179688 38.8705 6.62845 25.457 19.7839C9.97999 35.261 -0.0800781 59.5083 -0.0800781 90.2044C-0.0800781 120.385 9.97999 144.89 25.457 160.367C38.8705 173.522 56.1531 179.971 72.9199 179.971C89.6867 179.971 106.969 173.522 120.383 160.367C135.86 144.89 145.92 120.385 145.92 90.2044Z" fill="#DD1D21"/>
</g>
<defs>
<clipPath id="clip0">
<rect width="146" height="180" fill="white"/>
</clipPath>
</defs>
</svg>
