<svg width="32px" height="32px" viewBox="0 0 32 32" version="1.1" xmlns="http://www.w3.org/2000/svg" xmlns:xlink="http://www.w3.org/1999/xlink">
    <g stroke="none" stroke-width="1" fill="none" fill-rule="evenodd">
        <path d="M16,11.5 C18.76,11.5 21,13.74 21,16.5 C21,17.15 20.87,17.76 20.64,18.33 L23.56,21.25 C25.07,19.99 26.26,18.36 26.99,16.5 C25.26,12.11 20.99,9 15.99,9 C14.59,9 13.25,9.25 12.01,9.7 L14.17,11.86 C14.74,11.63 15.35,11.5 16,11.5 Z M6,8.77 L8.28,11.05 L8.74,11.51 C7.08,12.8 5.78,14.52 5,16.5 C6.73,20.89 11,24 16,24 C17.55,24 19.03,23.7 20.38,23.16 L20.8,23.58 L23.73,26.5 L25,25.23 L7.27,7.5 L6,8.77 Z M11.53,14.3 L13.08,15.85 C13.03,16.06 13,16.28 13,16.5 C13,18.16 14.34,19.5 16,19.5 C16.22,19.5 16.44,19.47 16.65,19.42 L18.2,20.97 C17.53,21.3 16.79,21.5 16,21.5 C13.24,21.5 11,19.26 11,16.5 C11,15.71 11.2,14.97 11.53,14.3 L11.53,14.3 Z M15.84,13.52 L18.99,16.67 L19.01,16.51 C19.01,14.85 17.67,13.51 16.01,13.51 L15.84,13.52 Z" fill="#715a5a" fill-rule="nonzero"> </path>
    </g>
</svg>
