<svg width="32px" height="32px" viewBox="0 0 32 32" version="1.1" xmlns="http://www.w3.org/2000/svg" xmlns:xlink="http://www.w3.org/1999/xlink">
    <g stroke="none" stroke-width="1" fill="none" fill-rule="evenodd">
        <path d="M16,9 C11,9 6.73,12.11 5,16.5 C6.73,20.89 11,24 16,24 C21,24 25.27,20.89 27,16.5 C25.27,12.11 21,9 16,9 Z M16,21.5 C13.24,21.5 11,19.26 11,16.5 C11,13.74 13.24,11.5 16,11.5 C18.76,11.5 21,13.74 21,16.5 C21,19.26 18.76,21.5 16,21.5 Z M16,13.5 C14.34,13.5 13,14.84 13,16.5 C13,18.16 14.34,19.5 16,19.5 C17.66,19.5 19,18.16 19,16.5 C19,14.84 17.66,13.5 16,13.5 Z" fill="#ccc" fill-rule="nonzero"> </path>
    </g>
</svg>
