<svg width="100" height="100" viewBox="0 0 100 100" fill="none" xmlns="http://www.w3.org/2000/svg">
<path d="M0.5 50C0.5 77.3381 22.6619 99.5 50 99.5C77.3381 99.5 99.5 77.3381 99.5 50C99.5 22.6619 77.3381 0.5 50 0.5C22.6619 0.5 0.5 22.6619 0.5 50Z" stroke="#D9D9D9"/>
<path d="M70.0943 55.3126C69.7943 55.3126 69.3943 55.2126 69.1943 54.9126C68.6943 54.4126 68.6943 53.6126 69.1943 53.1126L72.6943 49.6126C78.1943 44.1126 75.1943 36.7126 70.8943 32.1126C69.3943 30.4126 67.5943 29.0126 65.8943 28.1126C64.2943 27.2126 56.9943 24.7126 52.0943 29.4126L41.6943 39.8126C41.2943 40.2126 41.3943 40.2126 41.5943 40.4126C42.5943 41.4126 45.8943 41.8126 47.7943 39.9126L50.3943 37.3126C52.7943 35.2126 55.3943 35.9126 57.6943 36.6126C60.2943 37.4126 62.6943 38.1126 65.3943 35.9126C65.9943 35.5126 66.7943 35.6126 67.1943 36.1126C67.5943 36.7126 67.4943 37.5126 66.9943 37.9126C63.1943 40.9126 59.6943 39.9126 56.8943 39.1126C54.5943 38.4126 53.2943 38.1126 52.1943 39.2126L49.5943 41.8126C46.5943 44.8126 41.5943 44.1126 39.6943 42.3126C38.4943 41.0126 38.4943 39.3126 39.7943 38.0126L50.2943 27.5126C55.7943 22.2126 63.9943 24.0126 67.0943 25.8126C69.0943 26.9126 70.9943 28.5126 72.6943 30.3126C78.1943 36.2126 80.8943 45.0126 74.4943 51.5126L70.9943 54.9126C70.7943 55.2126 70.3943 55.3126 70.0943 55.3126Z" fill="#404040"/>
<path d="M29.2943 53.7126C28.9943 53.7126 28.5943 53.6126 28.3943 53.3126L24.8943 49.8126C18.3943 43.3126 20.8943 34.7126 26.0943 29.5126C31.5943 23.9126 40.4943 21.6126 46.9943 27.9126L49.3943 30.2126C49.8943 30.7126 49.8943 31.5126 49.3943 32.0126C48.8943 32.5126 48.0943 32.5126 47.5943 32.0126L45.1943 29.7126C39.6943 24.3126 32.3943 26.7126 27.8943 31.2126C23.6943 35.6126 21.4943 42.7126 26.6943 48.0126L30.1943 51.5126C30.6943 52.0126 30.6943 52.8126 30.1943 53.3126C29.9943 53.6126 29.5943 53.7126 29.2943 53.7126Z" fill="#404040"/>
<path d="M67.9941 62.2127C66.8941 62.2127 65.6941 61.7127 64.5941 60.6127L58.2941 54.0127C57.7941 53.5127 57.7941 52.7127 58.2941 52.2127C58.7941 51.7127 59.5941 51.7127 60.0941 52.2127L66.3941 58.7127C67.6941 60.0127 68.6941 59.4127 69.0941 59.0127C69.8941 58.2127 70.2941 56.7127 69.3941 55.8127L55.9941 41.7127C55.4941 41.2127 55.4941 40.4127 55.9941 39.9127C56.4941 39.4127 57.2941 39.4127 57.7941 39.9127L71.2941 54.0127C73.2941 56.1127 72.6941 59.2127 70.9941 60.9127C70.1941 61.7127 69.0941 62.2127 67.9941 62.2127Z" fill="#404040"/>
<path d="M62.8943 66.9126C61.7943 66.9126 60.6943 66.5126 59.6943 65.6126L52.6943 58.5126C52.1943 58.0126 52.1943 57.2126 52.6943 56.7126C53.1943 56.2126 53.9943 56.2126 54.4943 56.7126L61.4943 63.8126C62.4943 64.8126 63.8943 64.3126 64.5943 63.6126C64.9943 63.2126 65.8943 62.1126 64.4943 60.6126L57.6943 53.6126C57.1943 53.1126 57.1943 52.3126 57.6943 51.8126C58.1943 51.3126 58.9943 51.3126 59.4943 51.8126L66.2943 58.8126C68.5943 61.2126 67.8943 63.9126 66.2943 65.5126C65.4943 66.3126 64.1943 66.9126 62.8943 66.9126Z" fill="#404040"/>
<path d="M57.2942 71.2126C56.1942 71.2126 55.0942 70.8126 54.0942 69.9126L50.5942 66.4126C50.0942 65.9126 50.0942 65.1126 50.5942 64.6126C51.0942 64.1126 51.8942 64.1126 52.3942 64.6126L55.9942 68.0126C56.9942 69.0126 58.3942 68.5126 59.0942 67.8126C59.4942 67.4126 60.2942 66.3126 58.8942 64.9126C58.3942 64.4126 58.3942 63.6126 58.8942 63.1126C59.3942 62.6126 60.1942 62.6126 60.6942 63.1126C62.9942 65.5126 62.2942 68.2126 60.7942 69.7126C59.8942 70.6126 58.5942 71.2126 57.2942 71.2126Z" fill="#404040"/>
<path d="M46.9941 76.1126C45.7941 76.1126 44.6941 75.7126 43.7941 74.8126L43.3941 74.4126C42.4941 73.5126 42.0941 72.4126 42.0941 71.3126C41.8941 71.3126 41.7941 71.3126 41.5941 71.3126C40.3941 71.3126 39.2941 70.8126 38.3941 70.0126L37.9941 69.6126C37.1941 68.8126 36.6941 67.7126 36.6941 66.5126C35.3941 66.7126 33.8941 66.3126 32.8941 65.2126L32.4941 64.8126C31.5941 63.9126 31.0941 62.6126 31.1941 61.4126C31.0941 61.4126 30.9941 61.4126 30.8941 61.4126C29.6941 61.4126 28.4941 60.9126 27.6941 60.1126L27.2941 59.7126C26.3941 59.0126 25.9941 57.8126 25.9941 56.6126C25.9941 55.4126 26.4941 54.3126 27.2941 53.4126L32.0941 48.6126C33.8941 46.8126 36.6941 46.8126 38.4941 48.6126L38.8941 49.0126C39.4941 49.6126 39.8941 50.3126 40.0941 51.0126L40.2941 50.8126C41.9941 49.1126 44.9941 49.1126 46.6941 50.8126L47.0941 51.2126C48.5941 52.7126 48.7941 55.0126 47.6941 56.8126C48.4941 57.0126 49.1941 57.4126 49.7941 58.0126L50.1941 58.4126C51.0941 59.3126 51.4941 60.4126 51.4941 61.6126C51.4941 62.3126 51.2941 63.0126 50.9941 63.6126C51.7941 63.8126 52.4941 64.2126 53.1941 64.8126L53.5941 65.2126C55.3941 67.0126 55.3941 69.8126 53.5941 71.6126L50.3941 74.8126C49.3941 75.7126 48.1941 76.1126 46.9941 76.1126ZM49.8941 66.0126C49.3941 66.0126 48.8941 66.2126 48.4941 66.6126L45.2941 69.8126C44.4941 70.6126 44.4941 71.8126 45.2941 72.5126L45.6941 72.9126C46.3941 73.6126 47.6941 73.6126 48.3941 72.9126L51.5941 69.7126C52.2941 69.0126 52.2941 67.7126 51.5941 67.0126L51.1941 66.6126C50.8941 66.2126 50.3941 66.0126 49.8941 66.0126ZM46.4941 59.2126C45.9941 59.2126 45.4941 59.4126 45.0941 59.8126L39.8941 65.0126C39.4941 65.4126 39.2941 65.8126 39.2941 66.4126C39.2941 67.0126 39.4941 67.4126 39.8941 67.8126L40.2941 68.2126C40.6941 68.6126 41.0941 68.8126 41.6941 68.8126C42.1941 68.8126 42.6941 68.6126 43.0941 68.2126L48.2941 63.0126C48.6941 62.6126 48.8941 62.2126 48.8941 61.6126C48.8941 61.0126 48.6941 60.6126 48.2941 60.2126L47.8941 59.8126C47.4941 59.4126 46.9941 59.2126 46.4941 59.2126ZM43.3941 52.1126C42.8941 52.1126 42.3941 52.3126 41.9941 52.7126L34.2941 60.4126C33.4941 61.2126 33.4941 62.4126 34.2941 63.1126L34.6941 63.5126C35.4941 64.3126 36.6941 64.2126 37.3941 63.5126L45.0941 55.8126C45.8941 55.0126 45.8941 53.8126 45.0941 53.1126L44.6941 52.7126C44.3941 52.3126 43.8941 52.1126 43.3941 52.1126ZM35.2941 49.9126C34.7941 49.9126 34.2941 50.1126 33.8941 50.5126L29.0941 55.3126C28.6941 55.7126 28.4941 56.1126 28.4941 56.7126C28.4941 57.3126 28.6941 57.7126 29.0941 58.1126L29.4941 58.5126C30.1941 59.2126 31.4941 59.2126 32.1941 58.5126L36.9941 53.7126C37.6941 53.0126 37.6941 51.7126 36.9941 51.0126L36.5941 50.6126C36.2941 50.1126 35.7941 49.9126 35.2941 49.9126Z" fill="#404040"/>
</svg>
