<svg width="57" height="52" viewBox="0 0 57 52" fill="none" xmlns="http://www.w3.org/2000/svg">
<path d="M48.9129 31.245C48.614 31.245 48.2155 31.1452 48.0162 30.8458C47.5181 30.3469 47.5181 29.5486 48.0162 29.0497L51.5033 25.5573C56.983 20.0692 53.9941 12.6852 49.7099 8.0951C48.2155 6.39877 46.4221 5.0018 44.7284 4.10374C43.1343 3.20569 35.8613 0.711092 30.9794 5.40093L20.6178 15.7785C20.2193 16.1776 20.3189 16.1776 20.5182 16.3772C21.5145 17.375 24.8023 17.7741 26.6953 15.8782L29.2857 13.2839C31.6768 11.1884 34.2672 11.8869 36.5587 12.5854C39.1491 13.3836 41.5402 14.0821 44.2303 11.8869C44.828 11.4877 45.6251 11.5875 46.0236 12.0865C46.4221 12.6852 46.3225 13.4834 45.8243 13.8826C42.0384 16.8761 38.5513 15.8782 35.7617 15.08C33.4702 14.3815 32.175 14.0821 31.079 15.1798L28.4886 17.7741C25.4997 20.7676 20.5182 20.0692 18.6252 18.2731C17.4296 16.9759 17.4296 15.2795 18.7248 13.9823L29.186 3.50504C34.6657 -1.78351 42.8354 0.0126045 45.924 1.80871C47.9166 2.90634 49.8096 4.50288 51.5033 6.29899C56.983 12.1862 59.673 20.9672 53.2966 27.4532L49.8096 30.8458C49.6103 31.1452 49.2118 31.245 48.9129 31.245Z" fill="#404040"/>
<path d="M8.26363 29.6484C7.96473 29.6484 7.56621 29.5487 7.36695 29.2493L3.87988 25.7569C-2.59611 19.2709 -0.105344 10.6895 5.07545 5.50075C10.5551 -0.0871505 19.4223 -2.38218 25.8982 3.9042L28.2894 6.19923C28.7875 6.69815 28.7875 7.49642 28.2894 7.99534C27.7912 8.49426 26.9942 8.49426 26.496 7.99534L24.1049 5.70031C18.6252 0.311985 11.3522 2.7068 6.8688 7.19707C2.68431 11.5876 0.49244 18.6722 5.67323 23.9608L9.1603 27.4532C9.65845 27.9521 9.65845 28.7504 9.1603 29.2493C8.96104 29.5487 8.56252 29.6484 8.26363 29.6484Z" fill="#404040"/>
<path d="M46.8207 38.1299C45.7247 38.1299 44.5292 37.631 43.4332 36.5334L37.1565 29.9476C36.6584 29.4487 36.6584 28.6504 37.1565 28.1515C37.6547 27.6526 38.4517 27.6526 38.9499 28.1515L45.2266 34.6375C46.5218 35.9347 47.5181 35.336 47.9166 34.9368C48.7137 34.1385 49.1122 32.6418 48.2155 31.7437L34.865 17.6742C34.3669 17.1753 34.3669 16.377 34.865 15.8781C35.3632 15.3792 36.1602 15.3792 36.6584 15.8781L50.1085 29.9476C52.1011 32.0431 51.5033 35.1364 49.8096 36.8327C49.0126 37.631 47.9166 38.1299 46.8207 38.1299Z" fill="#404040"/>
<path d="M41.7394 42.8195C40.6435 42.8195 39.5476 42.4203 38.5512 41.5223L31.5771 34.4376C31.079 33.9387 31.079 33.1404 31.5771 32.6415C32.0753 32.1426 32.8723 32.1426 33.3705 32.6415L40.3446 39.7262C41.3409 40.724 42.7357 40.2251 43.4331 39.5266C43.8317 39.1275 44.7283 38.0299 43.3335 36.5331L36.5586 29.5482C36.0605 29.0493 36.0605 28.251 36.5586 27.7521C37.0568 27.2532 37.8538 27.2532 38.352 27.7521L45.1269 34.737C47.4184 37.1318 46.721 39.826 45.1269 41.4225C44.3298 42.2208 43.0346 42.8195 41.7394 42.8195Z" fill="#404040"/>
<path d="M36.1601 47.1105C35.0642 47.1105 33.9683 46.7114 32.972 45.8133L29.4849 42.3209C28.9867 41.8219 28.9867 41.0237 29.4849 40.5248C29.983 40.0258 30.7801 40.0258 31.2782 40.5248L34.8649 43.9174C35.8612 44.9152 37.2561 44.4163 37.9535 43.7178C38.352 43.3187 39.149 42.2211 37.7542 40.8241C37.2561 40.3252 37.2561 39.5269 37.7542 39.028C38.2524 38.5291 39.0494 38.5291 39.5476 39.028C41.8391 41.4228 41.1417 44.117 39.6472 45.6137C38.7505 46.5118 37.4553 47.1105 36.1601 47.1105Z" fill="#404040"/>
<path d="M25.8983 52C24.7027 52 23.6067 51.6009 22.7101 50.7029L22.3116 50.3037C21.4149 49.4057 21.0164 48.308 21.0164 47.2104C20.8171 47.2104 20.7175 47.2104 20.5182 47.2104C19.3226 47.2104 18.2267 46.7115 17.33 45.9132L16.9315 45.5141C16.1345 44.7158 15.6363 43.6182 15.6363 42.4208C14.3411 42.6204 12.8466 42.2212 11.8503 41.1236L11.4518 40.7245C10.5551 39.8264 10.057 38.5292 10.1566 37.3318C10.057 37.3318 9.95736 37.3318 9.85773 37.3318C8.66216 37.3318 7.46659 36.8329 6.66955 36.0346L6.27103 35.6355C5.37435 34.937 4.97583 33.7396 4.97583 32.5422C4.97583 31.3448 5.47398 30.2472 6.27103 29.3491L11.0533 24.5595C12.8466 22.7634 15.6363 22.7634 17.4297 24.5595L17.8282 24.9586C18.426 25.5573 18.8245 26.2558 19.0237 26.9543L19.223 26.7547C20.9167 25.0584 23.9056 25.0584 25.5994 26.7547L25.9979 27.1539C27.4923 28.6506 27.6916 30.9457 26.5957 32.7418C27.3927 32.9413 28.0901 33.3405 28.6879 33.9392L29.0864 34.3383C29.9831 35.2364 30.3816 36.334 30.3816 37.5314C30.3816 38.2299 30.1824 38.9284 29.8835 39.5271C30.6805 39.7266 31.3779 40.1258 32.0754 40.7245L32.4739 41.1236C34.2672 42.9197 34.2672 45.7137 32.4739 47.5098L29.2857 50.7029C28.2894 51.6009 27.0938 52 25.8983 52ZM28.7875 41.9219C28.2894 41.9219 27.7912 42.1214 27.3927 42.5206L24.2045 45.7137C23.4075 46.5119 23.4075 47.7093 24.2045 48.4078L24.6031 48.807C25.3005 49.5055 26.5957 49.5055 27.2931 48.807L30.4813 45.6139C31.1787 44.9154 31.1787 43.6182 30.4813 42.9197L30.0827 42.5206C29.7838 42.1214 29.2857 41.9219 28.7875 41.9219ZM25.4001 35.1366C24.9019 35.1366 24.4038 35.3361 24.0053 35.7353L18.8245 40.924C18.426 41.3232 18.2267 41.7223 18.2267 42.321C18.2267 42.9197 18.426 43.3189 18.8245 43.718L19.223 44.1171C19.6215 44.5163 20.0201 44.7158 20.6178 44.7158C21.116 44.7158 21.6141 44.5163 22.0127 44.1171L27.1935 38.9284C27.592 38.5292 27.7912 38.1301 27.7912 37.5314C27.7912 36.9327 27.592 36.5335 27.1935 36.1344L26.7949 35.7353C26.3964 35.3361 25.8983 35.1366 25.4001 35.1366ZM22.3116 28.0519C21.8134 28.0519 21.3152 28.2515 20.9167 28.6506L13.2452 36.334C12.4481 37.1323 12.4481 38.3297 13.2452 39.0281L13.6437 39.4273C14.4407 40.2256 15.6363 40.1258 16.3337 39.4273L24.0053 31.7439C24.8023 30.9457 24.8023 29.7482 24.0053 29.0498L23.6068 28.6506C23.3079 28.2515 22.8097 28.0519 22.3116 28.0519ZM14.2415 25.8567C13.7433 25.8567 13.2452 26.0562 12.8466 26.4554L8.06438 31.245C7.66586 31.6441 7.46659 32.0433 7.46659 32.642C7.46659 33.2407 7.66586 33.6398 8.06438 34.039L8.4629 34.4381C9.16031 35.1366 10.4555 35.1366 11.1529 34.4381L15.9352 29.6485C16.6326 28.95 16.6326 27.6528 15.9352 26.9543L15.5367 26.5552C15.2378 26.0562 14.7396 25.8567 14.2415 25.8567Z" fill="#404040"/>
</svg>
