<svg width="39" height="37" viewBox="0 0 39 37" fill="none" xmlns="http://www.w3.org/2000/svg">
<path fill-rule="evenodd" clip-rule="evenodd" d="M19.431 36.7532C18.0462 36.7532 17.3345 35.8333 17.3345 35.8333C16.1964 35.7829 7.30186 35.8081 7.30186 35.8081L6.43592 28.3622C6.43592 28.3622 0.957583 24.4284 0.51224 23.9748C-2.11741 11.822 7.38756 0.236328 19.4313 0.236328C31.4751 0.236328 40.9801 11.822 38.3504 23.9748C37.9051 24.4284 32.4268 28.3622 32.4268 28.3622L31.5608 35.8081C31.5608 35.8081 22.6663 35.7829 21.5282 35.8333C21.5282 35.8333 20.8165 36.7532 19.431 36.7532Z" fill="#ED1C24"/>
<path fill-rule="evenodd" clip-rule="evenodd" d="M19.4438 25.4298L18.6034 3.93646C17.5898 3.72575 15.0042 3.97861 13.6183 5.0322L17.6519 25.5141L12.1496 5.87508C10.8306 5.85861 8.16899 8.13056 7.97128 8.80408L15.9971 26.2305L6.9784 10.3002C6.08895 10.6373 4.14456 14.2828 4.45483 14.7063L14.5077 27.242L4.16524 16.5375C4.16524 16.5375 2.82072 18.6236 3.69752 22.1571L9.53944 26.4548L10.2708 32.3263H17.4332C17.4332 32.3263 18.605 33.4578 19.4365 33.4578C20.2679 33.4578 21.4397 32.3263 21.4397 32.3263H28.6021L29.3335 26.4548L35.1754 22.1571C36.0522 18.6236 34.7077 16.5375 34.7077 16.5375L24.3652 27.242L34.4181 14.7063C34.7284 14.2828 32.784 10.6373 31.8945 10.3002L22.8759 26.2305L30.9016 8.80408C30.7039 8.13056 28.0423 5.85861 26.7233 5.87508L21.2211 25.5141L25.2546 5.0322C23.8687 3.97861 21.2831 3.72575 20.2696 3.93646L19.4438 25.4298Z" fill="#FFD500"/>
</svg>
