<svg width="340" height="321" viewBox="0 0 340 321" fill="none" xmlns="http://www.w3.org/2000/svg">
<path fill-rule="evenodd" clip-rule="evenodd" d="M169.997 320.662C157.837 320.662 151.587 312.584 151.587 312.584C141.593 312.141 63.4888 312.362 63.4888 312.362L55.8847 246.978C55.8847 246.978 7.77843 212.436 3.86779 208.452C-19.2237 101.736 64.2413 0 170 0C275.759 0 359.224 101.736 336.132 208.452C332.222 212.436 284.115 246.978 284.115 246.978L276.511 312.362C276.511 312.362 198.407 312.141 188.413 312.584C188.413 312.584 182.163 320.662 169.997 320.662Z" fill="#ED1C24"/>
<path fill-rule="evenodd" clip-rule="evenodd" d="M170.11 221.225L162.731 32.4873C153.83 30.637 131.125 32.8574 118.956 42.1092L154.375 221.965L106.059 49.5107C94.4766 49.3661 71.1042 69.3165 69.3681 75.2308L139.844 228.256L60.6495 88.3684C52.839 91.3289 35.765 123.34 38.4895 127.06L126.766 237.138L35.9466 143.139C35.9466 143.139 24.1401 161.458 31.8395 192.486L83.1385 230.225L89.5608 281.784H152.455C152.455 281.784 162.745 291.72 170.046 291.72C177.347 291.72 187.637 281.784 187.637 281.784H250.531L256.954 230.225L308.253 192.486C315.952 161.458 304.146 143.139 304.146 143.139L213.326 237.138L301.603 127.06C304.327 123.34 287.253 91.3289 279.443 88.3684L200.248 228.256L270.724 75.2308C268.988 69.3165 245.615 49.3661 234.033 49.5107L185.717 221.965L221.137 42.1092C208.967 32.8574 186.262 30.637 177.362 32.4873L170.11 221.225Z" fill="#FFD500"/>
</svg>
