<svg width="100" height="100" viewBox="0 0 100 100" fill="none" xmlns="http://www.w3.org/2000/svg">
<path d="M0.5 50C0.5 77.3381 22.6619 99.5 50 99.5C77.3381 99.5 99.5 77.3381 99.5 50C99.5 22.6619 77.3381 0.5 50 0.5C22.6619 0.5 0.5 22.6619 0.5 50Z" stroke="#D9D9D9"/>
<path d="M63.6 24H37.7C36.2 24 35 25.2 35 26.7V72.9C35 74.4 36.2 75.6 37.7 75.6H63.6C65.1 75.6 66.3 74.4 66.3 72.9V26.7C66.3 25.2 65.1 24 63.6 24ZM63.7 72.9C63.7 73 63.6 73 63.6 73L37.6 72.9L37.7 26.6L63.7 26.7V72.9Z" fill="#404040"/>
<path d="M50.7 69.5C51.6 69.5 52.3 68.8 52.3 67.9C52.3 67 51.6 66.3 50.7 66.3C49.8 66.3 49.1 67 49.1 67.9C49 68.7 49.8 69.5 50.7 69.5Z" fill="#404040"/>
</svg>
