<?xml version="1.0" encoding="UTF-8"?>
<svg width="543" height="90" viewBox="0 0 543 90" fill="none" xmlns="http://www.w3.org/2000/svg">
<path d="M0 80.28C5.76 84.24 10.8 86.16 12.12 86.64C18 88.8 22.8 89.28 27.84 89.28C36.36 89.28 44.64 87.96 51.48 81.12C57.24 75.36 59.04 68.28 59.04 60.96C59.04 55.44 57.96 51 53.88 46.68C49.68 42.12 44.4 40.32 39.36 38.76L33 36.84C28.08 35.4 26.64 33.96 26.04 33.24C25.2 32.16 24.96 31.08 24.96 29.64C24.96 27.84 25.8 26.52 27 25.32C29.04 23.4 31.8 22.92 33.84 22.92C36.6 22.92 41.28 23.4 47.52 28.32L55.8 12.12C48.24 8.16 39 5.64 31.08 5.64C21.36 5.64 14.64 9.12 10.56 13.2C7.08 16.68 3.24 22.68 3.24 32.52C3.24 36.6 3.72 42.24 7.8 46.68C11.04 50.28 15.96 52.08 19.32 53.16L24.72 54.84C29.88 56.4 33 57.24 35.04 59.04C36.72 60.48 37.32 62.28 37.32 63.84C37.32 65.88 36.48 67.68 35.28 68.88C33.96 70.32 31.44 71.64 27.24 71.64C20.04 71.64 13.32 67.68 8.88 63.48L0 80.28Z" fill="#404040"/>
<path d="M70.3547 87.48H89.5547V58.68C89.5547 54.36 91.1147 51.48 92.7947 49.92C94.9547 48 97.7147 47.64 99.7547 47.64C101.675 47.64 104.075 47.88 105.875 49.92C108.035 52.32 108.275 56.4 108.275 60.36V87.48H127.475V53.4C127.475 48.24 127.235 43.2 122.435 38.4C119.195 35.16 114.155 32.64 106.595 32.64C103.235 32.64 99.2747 33.12 95.5547 35.28C93.2747 36.6 90.9947 38.76 89.5547 40.56V0H70.3547V87.48Z" fill="#404040"/>
<path d="M195.086 62.16C195.086 56.16 194.126 46.8 186.566 39.6C180.206 33.6 172.166 32.28 165.926 32.28C155.366 32.28 148.406 35.76 143.966 40.08C139.286 44.64 135.926 51.84 135.926 60.84C135.926 71.04 140.366 77.64 143.846 81.12C150.446 87.72 158.966 89.28 166.046 89.28C177.686 89.28 183.926 85.68 187.886 81.84C191.846 78 193.526 73.8 194.366 70.8H176.006C175.166 72.48 173.846 73.68 172.646 74.4C170.246 75.72 166.886 75.84 166.406 75.84C162.086 75.84 159.686 74.4 158.486 73.2C156.206 70.92 155.126 67.08 155.126 64.2H195.086V62.16ZM155.726 53.16C156.086 50.76 157.286 48.84 158.606 47.4C160.646 45.36 163.166 44.52 166.406 44.52C168.326 44.52 171.806 44.88 174.326 47.4C175.766 48.84 176.966 51.12 177.446 53.16H155.726Z" fill="#404040"/>
<path d="M206.175 0V87.48H225.375V0H206.175Z" fill="#404040"/>
<path d="M238.402 0V87.48H257.602V0H238.402Z" fill="#404040"/>
<path d="M346.916 60.72C339.596 68.76 331.916 69.12 328.796 69.12C322.916 69.12 317.396 66.84 313.916 63.6C309.716 59.64 307.436 53.52 307.436 48C307.436 42.36 309.476 36.12 314.396 31.56C318.236 28.08 322.796 26.28 328.796 26.28C332.276 26.28 340.196 26.76 346.916 35.04V10.2C338.276 6.72 332.036 6.12 328.196 6.12C315.716 6.12 305.036 11.4 297.956 18.6C290.756 25.92 285.836 36.72 285.836 48.12C285.836 58.56 290.156 69.48 297.956 77.28C304.556 83.76 314.996 89.28 328.916 89.28C334.076 89.28 338.636 88.32 346.916 85.32V60.72Z" fill="#404040"/>
<path d="M399.82 39C397.54 36.48 392.38 32.04 383.74 32.04C376.06 32.04 368.98 35.04 364.42 39.6C360.1 43.92 356.14 51 356.14 61.08C356.14 69.12 358.66 75.24 363.82 80.76C370.3 87.6 377.38 89.28 383.14 89.28C388.42 89.28 395.38 87.72 399.82 81.6V87.48H419.02V33.84H399.82V39ZM388.06 48.36C392.14 48.36 394.9 50.16 396.7 51.84C399.7 54.72 400.42 58.08 400.42 60.6C400.42 64.92 398.5 67.56 396.82 69.24C394.42 71.64 391.3 72.96 388.18 72.96C384.94 72.96 381.58 71.28 379.54 69.36C377.14 67.08 375.82 63.72 375.82 60.6C375.82 57.84 377.02 54.36 379.66 51.84C382.42 49.2 385.66 48.36 388.06 48.36Z" fill="#404040"/>
<path d="M432.245 87.48H451.445V64.56C451.445 61.68 451.685 56.04 455.765 52.32C458.525 49.8 462.005 49.44 464.525 49.44C469.205 49.44 471.845 50.88 472.805 51.36V33.24C470.285 33.12 469.445 33 468.965 33C465.365 33 461.885 33.6 459.005 35.16C456.125 36.6 453.365 39 451.445 42.6V33.84H432.245V87.48Z" fill="#404040"/>
<path d="M542.067 0H522.867V39C519.387 35.28 514.227 32.04 506.907 32.04C500.307 32.04 493.227 34.2 487.947 39.24C483.027 43.92 479.187 51.36 479.187 60.48C479.187 69 482.427 76.56 487.827 81.84C492.867 86.76 498.987 89.28 506.667 89.28C510.387 89.28 517.467 88.56 522.867 81.6V87.48H542.067V0ZM511.107 72.96C508.347 72.96 505.227 72 502.587 69.36C500.067 66.84 498.867 63.72 498.867 60.96C498.867 57.36 500.427 54 502.587 51.84C504.267 50.16 507.027 48.36 511.107 48.36C514.707 48.36 517.707 49.68 519.867 51.96C521.787 54 523.467 57.6 523.467 60.6C523.467 63.84 521.907 67.44 519.387 69.72C517.347 71.52 514.227 72.96 511.107 72.96Z" fill="#404040"/>
</svg>
