<svg width="100" height="100" viewBox="0 0 100 100" fill="none" xmlns="http://www.w3.org/2000/svg">
<path d="M0.5 50C0.5 77.3381 22.6619 99.5 50 99.5C77.3381 99.5 99.5 77.3381 99.5 50C99.5 22.6619 77.3381 0.5 50 0.5C22.6619 0.5 0.5 22.6619 0.5 50Z" stroke="#D9D9D9"/>
<path d="M32.7001 72.7L30.1001 72.3C31.2001 66 35.2001 60.7 41.0001 58.1L42.1001 60.5C37.1001 62.7 33.6001 67.3 32.7001 72.7Z" fill="#404040"/>
<path d="M65.5001 72.7C64.9001 69.3 63.3001 66.2 60.9001 63.8C59.5001 62.4 57.9001 61.3 56.1001 60.4L57.2001 58C59.3001 59 61.1001 60.3 62.7001 61.9C65.5001 64.7 67.4001 68.3 68.0001 72.2L65.5001 72.7Z" fill="#404040"/>
<path d="M49.1 80.1C33 80.1 20 67.1 20 51.1C20 35.1 33 22 49.1 22C65.1 22 78.2 35 78.2 51.1C78.2 67.2 65.1 80.1 49.1 80.1ZM49.1 24.6C34.5 24.6 22.6 36.5 22.6 51.1C22.6 65.7 34.5 77.6 49.1 77.6C63.7 77.6 75.6 65.7 75.6 51.1C75.6 36.5 63.7 24.6 49.1 24.6Z" fill="#404040"/>
<path d="M49.0999 63.8C42.0999 63.8 36.3999 57.4 36.3999 49.4C36.3999 41.4 41.9999 35.1 49.0999 35.1C56.1999 35.1 61.7999 41.5 61.7999 49.5C61.7999 57.5 56.0999 63.8 49.0999 63.8ZM49.0999 37.7C43.4999 37.7 38.9999 43 38.9999 49.5C38.9999 56 43.4999 61.3 49.0999 61.3C54.6999 61.3 59.1999 56 59.1999 49.5C59.1999 43 54.6999 37.7 49.0999 37.7Z" fill="#404040"/>
</svg>
